<?xml version="1.0" encoding="utf-8"?>
<!-- Generator: Adobe Illustrator 23.0.0, SVG Export Plug-In . SVG Version: 6.00 Build 0)  -->
<svg version="1.1" id="Calque_1" xmlns="http://www.w3.org/2000/svg" xmlns:xlink="http://www.w3.org/1999/xlink" x="0px" y="0px"
	 viewBox="0 0 1366 268" style="enable-background:new 0 0 1366 268;" xml:space="preserve">
<style type="text/css">
	.st0{fill:#125671;}
	.st1{fill:#4592CF;}
</style>
<g>
	<g>
		<g>
			<path class="st0" d="M8.95,103.78c-1.1,0-1.65-0.55-1.65-1.65V87.79c0-1.1,0.73-1.84,1.84-1.84h90.97c0.92,0,1.65,0.74,1.65,1.84
				v14.34c0,0.92-0.73,1.65-1.84,1.65H63.9l0.18,108.07c0,0.92-0.73,1.65-1.84,1.65H46.81c-1.1,0-1.84-0.74-1.84-1.65V103.78H8.95z"
				/>
			<path class="st0" d="M177.12,130.43c0.37-0.92,0.92-1.65,2.02-1.65h11.4c0.92,0,1.65,0.74,1.65,1.84v81.05
				c0,1.1-0.74,1.84-1.84,1.84h-11.39c-1.1,0-1.65-0.74-2.02-1.65l-2.39-11.03c-6.25,9.19-16.17,14.52-29.22,14.52
				c-25.55,0.18-42.64-17.83-42.64-44.11c0-26.28,17.09-43.93,42.64-44.11c13.05,0,22.97,5.33,29.22,14.52L177.12,130.43z
				 M146.61,197.69c15.81,0,26.47-10.48,26.83-26.47c-0.37-15.81-11.03-26.28-26.83-26.28c-15.81,0-26.28,10.48-26.28,26.28
				C120.33,186.85,130.99,197.69,146.61,197.69z"/>
			<path class="st0" d="M233.72,211.66c0,1.1-0.73,1.84-1.84,1.84h-14.34c-0.92,0-1.65-0.74-1.65-1.84V82.64
				c0-1.1,0.55-1.84,1.65-1.84h14.34c1.1,0,1.84,0.73,1.84,1.84V211.66z"/>
			<path class="st0" d="M297.86,198.43c9.19,0,16.54-3.12,21.14-7.54c0.55-0.55,1.1-0.74,1.65-0.74c0.55,0,1.1,0.18,1.47,0.55
				l9.19,9.37c0.74,0.74,0.74,1.84,0,2.57c-7.72,8.45-19.67,12.68-34.18,12.68c-27.02,0-45.21-17.83-45.21-44.11
				c0-26.28,17.64-44.11,43.93-44.11c26.83,0,43.93,16.54,43.74,49.62c0,1.29-0.55,1.65-1.84,1.65h-67.08
				C273.24,190.53,283.16,198.43,297.86,198.43z M321.02,164.61c-2.21-12.31-11.39-20.4-25.18-20.4c-13.97,0-23.16,8.09-25.36,20.4
				H321.02z"/>
			<path class="st0" d="M357.23,130.61c0-1.1,0.73-1.84,1.84-1.84h11.03c1.1,0,1.84,0.74,2.02,1.84l2.21,11.39
				c5.33-9.19,14.52-15.25,27.94-15.25c19.48,0.18,32.71,13.05,32.71,37.86l0.18,47.05c0,1.1-0.74,1.84-1.84,1.84h-14.34
				c-1.1,0-1.84-0.74-1.84-1.84v-44.48c0-15.62-7.72-22.42-18.93-22.42c-15.25,0-22.42,14.15-22.97,27.75v39.15
				c0,1.1-0.73,1.84-1.84,1.84h-14.34c-1.1,0-1.84-0.74-1.84-1.84V130.61z"/>
			<path class="st0" d="M489,197.14c2.94,0,6.25-2.21,7.72-3.31c0.37-0.37,0.74-0.37,1.1-0.37c0.74,0,1.1,0.37,1.47,0.74l5.51,12.13
				c0.55,1.1,0.37,2.21-0.55,2.76c-5.15,4.04-11.58,6.07-18.01,6.07c-14.89,0-23.34-10.84-23.16-29.77v-40.07h-12.31
				c-1.1,0-1.84-0.74-1.84-1.84v-12.87c0-0.92,0.73-1.65,1.84-1.65h12.31l0.18-27.38c0-1.1,0.74-1.84,1.65-1.84h14.15
				c1.1,0,1.84,0.74,1.84,1.84v27.38h18.75c1.1,0,1.84,0.74,1.84,1.65v12.87c0,1.1-0.74,1.84-1.84,1.84h-18.75v32.71
				C480.91,192.73,483.12,197.14,489,197.14z"/>
			<path class="st0" d="M512.53,203.21l5.88-11.21c0.37-0.55,0.92-0.92,1.47-0.92c0.37,0,0.74,0.18,1.1,0.37
				c7.17,4.41,14.89,6.98,23.34,6.98c9.19,0,15.44-3.31,15.25-8.45c0-6.07-7.17-8.45-19.67-11.76
				c-18.01-4.96-26.28-12.31-26.83-25.55c-0.37-15.99,13.97-25.91,33.08-25.91c14.15,0.18,24.08,6.43,27.02,8.64
				c0.74,0.55,1.1,1.84,0.55,2.76l-5.7,11.03c-0.18,0.74-0.74,1.1-1.47,1.1c-0.37,0-0.74-0.18-1.1-0.37
				c-2.76-1.65-9.01-5.51-18.19-6.07c-4.96,0-16.17,0.74-16.17,7.9c0,5.88,5.33,8.27,17.46,11.4c18.75,4.78,28.67,10.84,29.04,25.55
				c0.55,16.17-13.05,26.65-32.9,26.47c-16.72,0-28.3-6.62-31.8-9.19C512.16,205.41,511.97,204.31,512.53,203.21z"/>
			<path class="st1" d="M599.64,213.5c-1.1,0-1.84-0.74-1.84-1.84V87.79c0-1.1,0.74-1.84,1.84-1.84h15.44c1.1,0,1.84,0.74,1.84,1.65
				v53.11h58.26V87.79c0-1.1,0.74-1.84,1.65-1.84h15.62c1.1,0,1.65,0.74,1.65,1.65v124.06c0,1.1-0.74,1.84-1.65,1.84h-15.62
				c-1.1,0-1.84-0.74-1.84-1.84l0.18-54.4h-58.26v54.4c-0.18,1.1-0.74,1.84-1.84,1.84H599.64z"/>
			<path class="st1" d="M788.94,130.43c0.37-0.92,0.92-1.65,2.02-1.65h11.39c0.92,0,1.65,0.74,1.65,1.84v81.05
				c0,1.1-0.74,1.84-1.84,1.84h-11.39c-1.1,0-1.66-0.74-2.02-1.65l-2.39-11.03c-6.25,9.19-16.17,14.52-29.22,14.52
				c-25.55,0.18-42.64-17.83-42.64-44.11c0-26.28,17.09-43.93,42.64-44.11c13.05,0,22.97,5.33,29.22,14.52L788.94,130.43z
				 M758.43,197.69c15.81,0,26.47-10.48,26.83-26.47c-0.37-15.81-11.03-26.28-26.83-26.28s-26.28,10.48-26.28,26.28
				C732.15,186.85,742.81,197.69,758.43,197.69z"/>
			<path class="st1" d="M827.17,130.61c0-1.1,0.74-1.84,1.84-1.84h11.03c1.1,0,1.84,0.74,2.02,1.84l2.21,11.39
				c5.33-9.19,14.52-15.25,27.93-15.25c19.48,0.18,32.71,13.05,32.71,37.86l0.18,47.05c0,1.1-0.74,1.84-1.84,1.84h-14.34
				c-1.1,0-1.84-0.74-1.84-1.84v-44.48c0-15.62-7.72-22.42-18.93-22.42c-15.25,0-22.42,14.15-22.97,27.75v39.15
				c0,1.1-0.74,1.84-1.84,1.84H829c-1.1,0-1.84-0.74-1.84-1.84V130.61z"/>
			<path class="st1" d="M922.37,171.23c0-26.28,17.09-44.11,42.64-44.11c12.5,0,22.05,4.96,28.12,13.42V82.46
				c0-1.1,0.92-1.65,1.84-1.65h14.34c1.1,0,1.84,0.55,1.84,1.65v129.2c0,1.29-0.74,1.84-1.84,1.84h-10.11
				c-1.1,0-1.84-0.74-2.02-1.65l-2.76-11.21c-6.25,9.37-16.36,14.7-29.41,14.7C939.46,215.34,922.37,197.51,922.37,171.23z
				 M966.29,144.76c-15.62,0-26.1,10.66-26.1,26.47c0,15.62,10.48,26.47,26.1,26.47c15.62,0,26.83-10.48,26.83-26.47
				C993.13,155.42,982.1,144.76,966.29,144.76z"/>
			<path class="st1" d="M1043.67,86.87c7.35,0,12.13,4.78,12.13,11.95c0,7.35-4.78,12.13-12.13,12.13
				c-7.17,0-12.13-4.78-12.13-12.13C1031.54,91.65,1036.5,86.87,1043.67,86.87z M1052.67,211.66c0,1.1-0.74,1.84-1.84,1.84h-14.34
				c-0.92,0-1.66-0.74-1.66-1.84v-81.05c0-1.1,0.74-1.84,1.84-1.84h14.15c1.1,0,1.84,0.74,1.84,1.84V211.66z"/>
			<path class="st1" d="M1114.61,215.52c-26.28,0-43.93-18.01-43.93-44.29c0-29.41,21.87-44.11,43.74-44.29
				c15.25,0,28.67,6.06,37.12,18.93c0.74,0.74,0.55,1.84-0.18,2.57l-10.84,8.82c-0.37,0.37-0.74,0.55-1.29,0.55s-1.1-0.37-1.65-1.1
				c-4.96-7.35-12.86-11.76-22.97-11.76c-15.81,0-26.28,10.48-26.28,26.28s10.48,26.47,26.28,26.47c11.21,0,18.56-5.33,22.79-11.4
				c0.55-0.74,1.1-0.92,1.84-0.92c0.37,0,0.92,0,1.29,0.37l9.92,9.19c0.74,0.74,0.92,1.84,0.37,2.57
				C1143.28,208.9,1130.78,215.52,1114.61,215.52z"/>
			<path class="st1" d="M1237.93,130.43c0.37-0.92,0.92-1.65,2.02-1.65h11.4c0.92,0,1.65,0.74,1.65,1.84v81.05
				c0,1.1-0.74,1.84-1.84,1.84h-11.4c-1.1,0-1.65-0.74-2.02-1.65l-2.39-11.03c-6.25,9.19-16.17,14.52-29.22,14.52
				c-25.55,0.18-42.64-17.83-42.64-44.11c0-26.28,17.09-43.93,42.64-44.11c13.05,0,22.97,5.33,29.22,14.52L1237.93,130.43z
				 M1207.42,197.69c15.81,0,26.47-10.48,26.83-26.47c-0.37-15.81-11.03-26.28-26.83-26.28s-26.28,10.48-26.28,26.28
				C1181.14,186.85,1191.8,197.69,1207.42,197.69z"/>
			<path class="st1" d="M1276.16,253.56V130.61c0-1.1,0.74-1.84,2.02-1.84h9.74c1.29,0,2.02,0.74,2.39,1.84l2.57,11.21
				c6.25-9.37,16.36-14.89,29.59-14.89c25.55,0,42.64,18.01,42.64,44.29c0,26.28-17.09,44.29-42.64,44.29
				c-12.5,0-22.24-4.96-28.3-13.42v51.46c0,1.1-0.74,1.84-1.84,1.84h-14.34C1276.89,255.4,1276.16,254.67,1276.16,253.56z
				 M1321,197.69c15.81,0,26.28-10.66,26.28-26.47s-10.48-26.47-26.28-26.47c-15.62,0-26.65,10.66-26.65,26.47
				S1305.38,197.69,1321,197.69z"/>
		</g>
	</g>
	<g>
		<g>
			<path class="st0" d="M745.76,75.84c0,0.65-0.37,1.02-1.02,1.02h-7.59c-0.55,0-0.93-0.37-0.93-0.93V13.52
				c0-0.56,0.37-0.93,0.93-0.93h34.91c0.56,0,0.93,0.37,0.93,0.93v7.13c0,0.56-0.28,0.93-0.93,0.93h-26.3v18.06h21.95
				c0.56,0,0.93,0.37,0.93,0.93v7.04c0,0.56-0.37,0.93-0.93,0.93h-21.95V75.84z"/>
			<path class="st0" d="M800.68,33.15c13.34,0,22.23,9.07,22.23,22.32c0,13.24-8.89,22.32-22.23,22.32
				c-13.24,0-22.13-9.07-22.13-22.32C778.55,42.23,787.44,33.15,800.68,33.15z M800.68,68.8c7.96,0,13.24-5.37,13.24-13.33
				c0-7.96-5.28-13.34-13.24-13.34c-7.87,0-13.15,5.37-13.15,13.34C787.53,63.43,792.81,68.8,800.68,68.8z"/>
			<path class="st0" d="M848.92,42.41c-3.43,0-6.39,2.32-8.06,5.93v27.6c0,0.56-0.28,0.93-0.93,0.93h-7.22
				c-0.56,0-0.93-0.37-0.93-0.93V35.1c0-0.56,0.37-0.83,0.93-0.83h5c0.65,0,1.02,0.37,1.11,0.83l0.83,3.15
				c2.69-2.87,6.48-4.91,11.02-4.91c2.78,0,5.28,0.74,6.57,1.11c0.56,0.09,0.83,0.56,0.65,1.11l-1.85,7.5
				c-0.09,0.37-0.46,0.65-0.74,0.65c-0.18,0-0.28,0-0.46-0.09C853.64,43.15,851.14,42.41,848.92,42.41z"/>
			<path class="st0" d="M895.32,70.19c-2.96,4.72-7.87,7.69-14.54,7.69c-9.82,0-16.39-6.58-16.39-19.08V35.19
				c0-0.56,0.37-0.93,0.83-0.93h7.22c0.56,0,0.93,0.37,0.93,0.93V57.6c0,8.33,3.8,11.67,9.91,11.67c6.2,0,11.2-5.37,11.58-14.35
				V35.19c0-0.56,0.37-0.93,0.93-0.93H903c0.56,0,0.93,0.28,0.93,0.83v40.84c0,0.56-0.37,0.93-0.93,0.93h-5.56
				c-0.56,0-0.93-0.37-1.02-0.83L895.32,70.19z"/>
			<path class="st0" d="M922.07,34.17c0.56,0,1.02,0.46,1.11,0.93l1.02,5.37c2.5-4.45,6.76-7.32,12.78-7.32
				c6.11,0.09,10.93,2.96,13.43,8.7c2.78-5.28,7.69-8.7,14.35-8.7c9.08,0.09,15.37,6.57,15.28,19.08l0.09,23.71
				c0,0.56-0.37,0.93-0.93,0.93h-7.22c-0.56,0-0.93-0.37-0.93-0.93V53.52c0-7.96-3.24-11.3-8.52-11.3
				c-5.93,0-10.09,5.09-10.19,14.63v19.08c0,0.56-0.37,0.93-0.93,0.93h-7.13c-0.56,0-0.93-0.37-0.93-0.93V53.52
				c0-7.87-3.24-11.3-8.43-11.3c-7.32,0-10.09,7.69-10.28,13.8v19.91c0,0.56-0.37,0.93-0.93,0.93h-7.22c-0.56,0-0.93-0.37-0.93-0.93
				V35.1c0-0.56,0.37-0.93,0.93-0.93H922.07z"/>
			<path class="st0" d="M988.75,71.68l2.96-5.65c0.18-0.28,0.46-0.46,0.74-0.46c0.18,0,0.37,0.09,0.56,0.19
				c3.61,2.22,7.5,3.52,11.76,3.52c4.63,0,7.78-1.67,7.69-4.26c0-3.06-3.61-4.26-9.91-5.93c-9.08-2.5-13.24-6.2-13.52-12.87
				c-0.19-8.06,7.04-13.06,16.67-13.06c7.13,0.09,12.13,3.24,13.61,4.35c0.37,0.28,0.56,0.93,0.28,1.39l-2.87,5.56
				c-0.09,0.37-0.37,0.56-0.74,0.56c-0.19,0-0.37-0.09-0.56-0.19c-1.39-0.83-4.54-2.78-9.17-3.06c-2.5,0-8.15,0.37-8.15,3.98
				c0,2.96,2.69,4.17,8.8,5.74c9.45,2.41,14.45,5.46,14.63,12.87c0.28,8.15-6.57,13.43-16.58,13.33c-8.43,0-14.26-3.33-16.02-4.63
				C988.56,72.79,988.47,72.23,988.75,71.68z"/>
			<path class="st0" d="M1073.94,69.27c4.63,0,8.33-1.57,10.65-3.8c0.28-0.28,0.56-0.37,0.83-0.37c0.28,0,0.56,0.09,0.74,0.28
				l4.63,4.72c0.37,0.37,0.37,0.93,0,1.3c-3.89,4.26-9.91,6.39-17.22,6.39c-13.61,0-22.78-8.98-22.78-22.23s8.89-22.23,22.13-22.23
				c13.52,0,22.13,8.33,22.04,25c0,0.65-0.28,0.83-0.93,0.83h-33.8C1061.53,65.29,1066.53,69.27,1073.94,69.27z M1085.61,52.23
				c-1.11-6.2-5.74-10.28-12.69-10.28c-7.04,0-11.67,4.08-12.78,10.28H1085.61z"/>
			<path class="st0" d="M1103.85,35.1c0-0.56,0.37-0.93,0.93-0.93h5.56c0.56,0,0.93,0.37,1.02,0.93l1.11,5.74
				c2.69-4.63,7.32-7.69,14.08-7.69c9.82,0.09,16.48,6.57,16.48,19.08l0.09,23.71c0,0.56-0.37,0.93-0.93,0.93h-7.22
				c-0.56,0-0.93-0.37-0.93-0.93V53.52c0-7.87-3.89-11.3-9.54-11.3c-7.69,0-11.3,7.13-11.58,13.98v19.73c0,0.56-0.37,0.93-0.93,0.93
				h-7.22c-0.56,0-0.93-0.37-0.93-0.93V35.1z"/>
			<path class="st0" d="M1187,75.94c0,0.56-0.37,0.93-0.93,0.93h-7.22c-0.46,0-0.83-0.37-0.83-0.93V10.93
				c0-0.56,0.28-0.93,0.83-0.93h7.22c0.56,0,0.93,0.37,0.93,0.93V75.94z"/>
			<path class="st0" d="M1203.67,13.06c3.7,0,6.11,2.41,6.11,6.02c0,3.7-2.41,6.11-6.11,6.11c-3.61,0-6.11-2.41-6.11-6.11
				C1197.56,15.46,1200.06,13.06,1203.67,13.06z M1208.21,75.94c0,0.56-0.37,0.93-0.93,0.93h-7.22c-0.46,0-0.83-0.37-0.83-0.93V35.1
				c0-0.56,0.37-0.93,0.93-0.93h7.13c0.56,0,0.93,0.37,0.93,0.93V75.94z"/>
			<path class="st0" d="M1253.77,40.84l1.48-5.74c0.18-0.65,0.56-0.83,1.02-0.93h5c0.56,0,0.93,0.37,0.93,0.93l0.09,41.21
				c0,13.71-9.35,22.5-22.78,22.6c-7.22-0.09-13.15-2.22-17.04-4.54c-0.56-0.28-0.65-0.83-0.37-1.39l3.15-6.3
				c0.19-0.28,0.46-0.46,0.74-0.46c0.18,0,0.28,0,0.46,0.09c2.96,1.85,7.32,3.33,12.69,3.61c8.98-0.09,13.98-5.19,14.08-13.71v-5.28
				c-3.15,4.35-8.06,6.95-14.45,6.95c-12.87-0.09-21.48-8.98-21.48-22.32c0-13.24,8.61-22.32,21.48-22.32
				C1245.53,33.24,1250.62,36.11,1253.77,40.84z M1239.42,68.8c8.06,0,13.71-5.28,13.71-13.24c0-8.06-5.56-13.34-13.71-13.34
				c-7.87,0-13.15,5.37-13.15,13.34C1226.26,63.53,1231.54,68.8,1239.42,68.8z"/>
			<path class="st0" d="M1273.86,35.1c0-0.56,0.37-0.93,0.93-0.93h5.56c0.56,0,0.93,0.37,1.02,0.93l1.11,5.74
				c2.69-4.63,7.32-7.69,14.08-7.69c9.82,0.09,16.48,6.57,16.48,19.08l0.09,23.71c0,0.56-0.37,0.93-0.93,0.93h-7.22
				c-0.56,0-0.93-0.37-0.93-0.93V53.52c0-7.87-3.89-11.3-9.54-11.3c-7.69,0-11.3,7.13-11.58,13.98v19.73c0,0.56-0.37,0.93-0.93,0.93
				h-7.22c-0.56,0-0.93-0.37-0.93-0.93V35.1z"/>
			<path class="st0" d="M1344.98,69.27c4.63,0,8.33-1.57,10.65-3.8c0.28-0.28,0.56-0.37,0.83-0.37c0.28,0,0.56,0.09,0.74,0.28
				l4.63,4.72c0.37,0.37,0.37,0.93,0,1.3c-3.89,4.26-9.91,6.39-17.22,6.39c-13.61,0-22.78-8.98-22.78-22.23s8.89-22.23,22.13-22.23
				c13.52,0,22.13,8.33,22.04,25c0,0.65-0.28,0.83-0.93,0.83h-33.8C1332.57,65.29,1337.57,69.27,1344.98,69.27z M1356.65,52.23
				c-1.11-6.2-5.74-10.28-12.69-10.28c-7.04,0-11.67,4.08-12.78,10.28H1356.65z"/>
		</g>
	</g>
</g>
</svg>
